<svg width="53" height="40" viewBox="0 0 53 40" fill="none" xmlns="http://www.w3.org/2000/svg">
<path d="M26.3889 29.6667C22.1667 29.6667 17.9444 26.2056 15.8333 24.7222C5.27778 17.8 2.11111 15.3278 0 13.8444V34.6111C0 37.3414 2.36345 39.5556 5.27778 39.5556H47.5C50.4143 39.5556 52.7778 37.3414 52.7778 34.6111V13.8444C50.6667 15.3278 47.5 17.8 36.9444 24.7222C34.8333 26.2056 30.6111 29.6667 26.3889 29.6667ZM47.5 0H5.27778C2.36345 0 0 2.21419 0 4.94445V7.41667C4.22222 10.3833 3.69444 10.3833 19 20.7667C20.5833 21.7556 23.75 24.7222 26.3889 24.7222C29.0278 24.7222 32.1944 21.7556 33.7778 21.2611C49.0833 10.8778 48.5556 10.8778 52.7778 7.91111V4.94445C52.7778 2.21419 50.4143 0 47.5 0Z" fill="white" fill-opacity="0.39"/>
</svg>
