<svg width="46" height="47" viewBox="0 0 46 47" fill="none" xmlns="http://www.w3.org/2000/svg">
<path d="M41.0714 0H4.92857C2.20759 0 0 2.25558 0 5.03571V41.9643C0 44.7444 2.20759 47 4.92857 47H41.0714C43.7924 47 46 44.7444 46 41.9643V5.03571C46 2.25558 43.7924 0 41.0714 0ZM28.4728 40.2542C27.6103 40.4116 27.292 39.8661 27.292 39.415C27.292 38.8484 27.3125 35.9529 27.3125 33.6134C27.3125 31.9768 26.7786 30.9382 26.1522 30.3926C29.9513 29.9625 33.9558 29.4275 33.9558 22.7237C33.9558 20.8143 33.2884 19.8596 32.2 18.6321C32.3746 18.181 32.9598 16.3241 32.0254 13.9112C30.5982 13.46 27.333 15.7891 27.333 15.7891C25.9777 15.4009 24.5094 15.2016 23.0616 15.2016C21.6138 15.2016 20.1455 15.4009 18.7902 15.7891C18.7902 15.7891 15.525 13.46 14.0978 13.9112C13.1634 16.3136 13.7384 18.1705 13.9232 18.6321C12.8348 19.8596 12.3214 20.8143 12.3214 22.7237C12.3214 29.396 16.1513 29.9625 19.9504 30.3926C19.4576 30.8438 19.0161 31.6201 18.8621 32.7321C17.8866 33.1833 15.3915 33.9596 13.9027 31.2739C12.9683 29.6163 11.2844 29.4799 11.2844 29.4799C9.62098 29.4589 11.1714 30.55 11.1714 30.55C12.2804 31.0746 13.0607 33.0888 13.0607 33.0888C14.0567 36.2047 18.821 35.1556 18.821 35.1556C18.821 36.6138 18.8415 38.9848 18.8415 39.415C18.8415 39.8661 18.5335 40.4116 17.6607 40.2542C10.8839 37.9357 6.14018 31.3473 6.14018 23.6469C6.14018 14.0161 13.3482 6.70379 22.7741 6.70379C32.2 6.70379 39.8393 14.0161 39.8393 23.6469C39.8496 31.3473 35.2496 37.9462 28.4728 40.2542ZM18.4 33.8442C18.2049 33.8862 18.0201 33.8022 17.9996 33.6658C17.979 33.5085 18.1125 33.3721 18.3076 33.3301C18.5027 33.3092 18.6875 33.3931 18.708 33.5295C18.7388 33.6658 18.6054 33.8022 18.4 33.8442ZM17.4246 33.7498C17.4246 33.8862 17.2705 34.0016 17.0652 34.0016C16.8393 34.0225 16.6853 33.9071 16.6853 33.7498C16.6853 33.6134 16.8393 33.498 17.0446 33.498C17.2397 33.477 17.4246 33.5924 17.4246 33.7498ZM16.0179 33.6344C15.9768 33.7708 15.7714 33.8337 15.5969 33.7708C15.4018 33.7288 15.2683 33.5714 15.3094 33.435C15.3504 33.2987 15.5558 33.2357 15.7304 33.2777C15.9357 33.3406 16.0692 33.498 16.0179 33.6344ZM14.7549 33.0679C14.6625 33.1833 14.4674 33.1623 14.3134 33.0049C14.1594 32.8685 14.1183 32.6692 14.221 32.5748C14.3134 32.4594 14.5085 32.4804 14.6625 32.6377C14.796 32.7741 14.8473 32.9839 14.7549 33.0679ZM13.8205 32.1132C13.7281 32.1761 13.5536 32.1132 13.4406 31.9558C13.3277 31.7984 13.3277 31.6201 13.4406 31.5467C13.5536 31.4522 13.7281 31.5257 13.8205 31.683C13.9335 31.8404 13.9335 32.0292 13.8205 32.1132ZM13.1531 31.0955C13.0607 31.19 12.9067 31.1375 12.7937 31.0326C12.6808 30.8962 12.6603 30.7388 12.7527 30.6654C12.8451 30.571 12.9991 30.6234 13.1121 30.7283C13.225 30.8647 13.2455 31.0221 13.1531 31.0955ZM12.4652 30.3192C12.4241 30.4136 12.2906 30.4346 12.1777 30.3612C12.0442 30.2982 11.9826 30.1828 12.0237 30.0884C12.0647 30.0254 12.1777 29.994 12.3112 30.0464C12.4446 30.1199 12.5063 30.2353 12.4652 30.3192Z" fill="white" fill-opacity="0.44"/>
</svg>
