<svg width="47" height="47" viewBox="0 0 47 47" fill="none" xmlns="http://www.w3.org/2000/svg">
<path d="M41.9643 0H5.03571C2.25558 0 0 2.25558 0 5.03571V41.9643C0 44.7444 2.25558 47 5.03571 47H41.9643C44.7444 47 47 44.7444 47 41.9643V5.03571C47 2.25558 44.7444 0 41.9643 0ZM36.8342 16.6598C36.8551 16.9536 36.8551 17.2578 36.8551 17.5516C36.8551 26.6473 29.931 37.1279 17.2788 37.1279C13.3761 37.1279 9.7567 35.9949 6.71429 34.0435C7.27031 34.1065 7.80536 34.1275 8.37188 34.1275C11.5926 34.1275 14.5511 33.0364 16.9116 31.19C13.8902 31.127 11.3513 29.1442 10.4806 26.4165C11.5402 26.5739 12.4949 26.5739 13.5859 26.2906C10.4386 25.6507 8.07812 22.881 8.07812 19.5344V19.4504C8.99085 19.9645 10.0609 20.2792 11.1835 20.3212C10.2397 19.6935 9.46607 18.8418 8.93154 17.8423C8.39701 16.8428 8.11823 15.7265 8.12009 14.5931C8.12009 13.3132 8.4558 12.1382 9.05379 11.1205C12.4424 15.296 17.5306 18.0237 23.2377 18.3174C22.2621 13.6489 25.7556 9.86161 29.952 9.86161C31.9348 9.86161 33.7183 10.6904 34.9772 12.0333C36.5299 11.7395 38.0196 11.1625 39.3415 10.3757C38.8275 11.9703 37.7469 13.3132 36.3201 14.1629C37.7049 14.0161 39.0478 13.6279 40.2857 13.0929C39.352 14.4672 38.177 15.6842 36.8342 16.6598Z" fill="white" fill-opacity="0.44"/>
</svg>
