<svg width="46" height="47" viewBox="0 0 46 47" fill="none" xmlns="http://www.w3.org/2000/svg">
<path d="M42.7143 0H3.27545C1.4683 0 0 1.52121 0 3.38862V43.6114C0 45.4788 1.4683 47 3.27545 47H42.7143C44.5214 47 46 45.4788 46 43.6114V3.38862C46 1.52121 44.5214 0 42.7143 0ZM13.9027 40.2857H7.08482V17.8558H13.9129V40.2857H13.9027ZM10.4937 14.7924C8.3067 14.7924 6.54063 12.9775 6.54063 10.7533C6.54063 8.52924 8.3067 6.71429 10.4937 6.71429C12.6705 6.71429 14.4469 8.52924 14.4469 10.7533C14.4469 12.9879 12.6808 14.7924 10.4937 14.7924ZM39.4594 40.2857H32.6415V29.375C32.6415 26.7732 32.5902 23.4266 29.0991 23.4266C25.5464 23.4266 25.0022 26.2592 25.0022 29.1862V40.2857H18.1844V17.8558H24.725V20.9192H24.8174C25.7313 19.1567 27.9594 17.2998 31.2759 17.2998C38.1759 17.2998 39.4594 21.9473 39.4594 27.9902V40.2857Z" fill="white" fill-opacity="0.44"/>
</svg>
