<svg width="54" height="237" viewBox="0 0 54 237" fill="none" xmlns="http://www.w3.org/2000/svg">
<path fill-rule="evenodd" clip-rule="evenodd" d="M44.5 17.8695C49.1944 17.8695 53 13.8984 53 8.99991C53 4.10138 49.1944 0.130341 44.5 0.130341C39.8056 0.130341 36 4.10138 36 8.99991C36 13.8984 39.8056 17.8695 44.5 17.8695ZM44.5 13.9998C46.9853 13.9998 49 11.7613 49 8.99985C49 6.23842 46.9853 3.99985 44.5 3.99985C42.0147 3.99985 40 6.23842 40 8.99985C40 11.7613 42.0147 13.9998 44.5 13.9998Z" fill="#38747C"/>
<path fill-rule="evenodd" clip-rule="evenodd" d="M44.5 91C49.2635 91 53.125 86.9705 53.125 82C53.125 77.0294 49.2635 73 44.5 73C39.7365 73 35.875 77.0294 35.875 82C35.875 86.9705 39.7365 91 44.5 91ZM44.5 87C46.9853 87 49 84.7614 49 82C49 79.2385 46.9853 77 44.5 77C42.0147 77 40 79.2385 40 82C40 84.7614 42.0147 87 44.5 87Z" fill="#38747C"/>
<path fill-rule="evenodd" clip-rule="evenodd" d="M44.5 163.87C49.1944 163.87 53 159.898 53 155C53 150.101 49.1944 146.13 44.5 146.13C39.8056 146.13 36 150.101 36 155C36 159.898 39.8056 163.87 44.5 163.87ZM44.5 160C46.9853 160 49 157.761 49 155C49 152.238 46.9853 150 44.5 150C42.0147 150 40 152.238 40 155C40 157.761 42.0147 160 44.5 160Z" fill="#38747C"/>
<path fill-rule="evenodd" clip-rule="evenodd" d="M44.5 237C49.1944 237 53 232.971 53 228C53 223.029 49.1944 219 44.5 219C39.8056 219 36 223.029 36 228C36 232.971 39.8056 237 44.5 237ZM44.5 233C46.9853 233 49 230.761 49 228C49 225.239 46.9853 223 44.5 223C42.0147 223 40 225.239 40 228C40 230.761 42.0147 233 44.5 233Z" fill="#38747C"/>
<line x1="2.5" y1="7.99997" x2="2.5" y2="228" stroke="#38747C" stroke-width="5"/>
<path d="M0 8.99997H39" stroke="#38747C" stroke-width="5"/>
<path d="M0 228H39" stroke="#38747C" stroke-width="5"/>
<path d="M0 155H39M0 155H39" stroke="#38747C" stroke-width="5"/>
<path d="M0 82H39M0 82H39" stroke="#38747C" stroke-width="5"/>
</svg>
