<svg width="46" height="47" viewBox="0 0 46 47" fill="none" xmlns="http://www.w3.org/2000/svg">
<path d="M23.0051 11.4498C16.4784 11.4498 11.2139 16.8299 11.2139 23.5C11.2139 30.1701 16.4784 35.5502 23.0051 35.5502C29.5318 35.5502 34.7963 30.1701 34.7963 23.5C34.7963 16.8299 29.5318 11.4498 23.0051 11.4498ZM23.0051 31.3342C18.7874 31.3342 15.3393 27.8209 15.3393 23.5C15.3393 19.1791 18.7771 15.6658 23.0051 15.6658C27.2331 15.6658 30.6709 19.1791 30.6709 23.5C30.6709 27.8209 27.2229 31.3342 23.0051 31.3342ZM38.0289 10.9569C38.0289 12.5195 36.7974 13.7675 35.2786 13.7675C33.7496 13.7675 32.5284 12.509 32.5284 10.9569C32.5284 9.40472 33.7598 8.14621 35.2786 8.14621C36.7974 8.14621 38.0289 9.40472 38.0289 10.9569ZM45.8384 13.8095C45.6639 10.0445 44.8224 6.70942 42.1235 3.96168C39.4348 1.21393 36.1714 0.353955 32.4873 0.165179C28.6904 -0.0550597 17.3096 -0.0550597 13.5127 0.165179C9.83882 0.343468 6.57546 1.20345 3.87652 3.95119C1.17758 6.69893 0.346347 10.034 0.161629 13.799C-0.0538762 17.6794 -0.0538762 29.3101 0.161629 33.1905C0.336085 36.9555 1.17758 40.2906 3.87652 43.0383C6.57546 45.7861 9.82856 46.646 13.5127 46.8348C17.3096 47.0551 28.6904 47.0551 32.4873 46.8348C36.1714 46.6565 39.4348 45.7966 42.1235 43.0383C44.8122 40.2906 45.6537 36.9555 45.8384 33.1905C46.0539 29.3101 46.0539 17.6899 45.8384 13.8095ZM40.9331 37.3541C40.1326 39.4096 38.583 40.9933 36.5614 41.8218C33.5341 43.0488 26.3506 42.7656 23.0051 42.7656C19.6597 42.7656 12.4659 43.0383 9.44886 41.8218C7.43748 41.0037 5.8879 39.4201 5.07719 37.3541C3.87652 34.2602 4.1536 26.9189 4.1536 23.5C4.1536 20.0811 3.88678 12.7293 5.07719 9.64593C5.87764 7.59037 7.42722 6.00675 9.44886 5.17823C12.4762 3.95119 19.6597 4.23435 23.0051 4.23435C26.3506 4.23435 33.5443 3.96168 36.5614 5.17823C38.5728 5.99626 40.1224 7.57988 40.9331 9.64593C42.1337 12.7398 41.8567 20.0811 41.8567 23.5C41.8567 26.9189 42.1337 34.2707 40.9331 37.3541Z" fill="white" fill-opacity="0.44"/>
</svg>
